<svg xmlns="http://www.w3.org/2000/svg" width="512" height="512" viewBox="0 0 512 512">

<defs><clipPath id="ring"><path d="M 256.0 256.0 m -250 0 a 250 250 0 1 0 500 0 a 250 250 0 1 0 -500 0 M 256.0 256.0 m -212 0 a 212 212 0 1 1 424 0 a 212 212 0 1 1 -424 0 Z" clip-rule="evenodd"/></clipPath></defs>
<g clip-path="url(#ring)">
<rect x="0" y="0" width="512" height="512" fill="#2a3038"/>
<polygon points="-352.0,0 -330.0,0 -842.0,512 -864.0,512" fill="#f0b03a"/>
<polygon points="-308.0,0 -286.0,0 -798.0,512 -820.0,512" fill="#f0b03a"/>
<polygon points="-264.0,0 -242.0,0 -754.0,512 -776.0,512" fill="#f0b03a"/>
<polygon points="-220.0,0 -198.0,0 -710.0,512 -732.0,512" fill="#f0b03a"/>
<polygon points="-176.0,0 -154.0,0 -666.0,512 -688.0,512" fill="#f0b03a"/>
<polygon points="-132.0,0 -110.0,0 -622.0,512 -644.0,512" fill="#f0b03a"/>
<polygon points="-88.0,0 -66.0,0 -578.0,512 -600.0,512" fill="#f0b03a"/>
<polygon points="-44.0,0 -22.0,0 -534.0,512 -556.0,512" fill="#f0b03a"/>
<polygon points="0.0,0 22.0,0 -490.0,512 -512.0,512" fill="#f0b03a"/>
<polygon points="44.0,0 66.0,0 -446.0,512 -468.0,512" fill="#f0b03a"/>
<polygon points="88.0,0 110.0,0 -402.0,512 -424.0,512" fill="#f0b03a"/>
<polygon points="132.0,0 154.0,0 -358.0,512 -380.0,512" fill="#f0b03a"/>
<polygon points="176.0,0 198.0,0 -314.0,512 -336.0,512" fill="#f0b03a"/>
<polygon points="220.0,0 242.0,0 -270.0,512 -292.0,512" fill="#f0b03a"/>
<polygon points="264.0,0 286.0,0 -226.0,512 -248.0,512" fill="#f0b03a"/>
<polygon points="308.0,0 330.0,0 -182.0,512 -204.0,512" fill="#f0b03a"/>
<polygon points="352.0,0 374.0,0 -138.0,512 -160.0,512" fill="#f0b03a"/>
<polygon points="396.0,0 418.0,0 -94.0,512 -116.0,512" fill="#f0b03a"/>
<polygon points="440.0,0 462.0,0 -50.0,512 -72.0,512" fill="#f0b03a"/>
<polygon points="484.0,0 506.0,0 -6.0,512 -28.0,512" fill="#f0b03a"/>
<polygon points="528.0,0 550.0,0 38.0,512 16.0,512" fill="#f0b03a"/>
<polygon points="572.0,0 594.0,0 82.0,512 60.0,512" fill="#f0b03a"/>
<polygon points="616.0,0 638.0,0 126.0,512 104.0,512" fill="#f0b03a"/>
<polygon points="660.0,0 682.0,0 170.0,512 148.0,512" fill="#f0b03a"/>
<polygon points="704.0,0 726.0,0 214.0,512 192.0,512" fill="#f0b03a"/>
<polygon points="748.0,0 770.0,0 258.0,512 236.0,512" fill="#f0b03a"/>
<polygon points="792.0,0 814.0,0 302.0,512 280.0,512" fill="#f0b03a"/>
<polygon points="836.0,0 858.0,0 346.0,512 324.0,512" fill="#f0b03a"/>
<polygon points="880.0,0 902.0,0 390.0,512 368.0,512" fill="#f0b03a"/>
<polygon points="924.0,0 946.0,0 434.0,512 412.0,512" fill="#f0b03a"/>
<polygon points="968.0,0 990.0,0 478.0,512 456.0,512" fill="#f0b03a"/>
<polygon points="1012.0,0 1034.0,0 522.0,512 500.0,512" fill="#f0b03a"/>
</g>
<circle cx="256.0" cy="256.0" r="212.0" fill="#38424c"/>
<circle cx="256.0" cy="256.0" r="206.0" fill="#414b57"/>
<g stroke="#2a3038" stroke-width="3" fill="none" opacity="0.55">
<circle cx="256.0" cy="256.0" r="150"/>
<line x1="298.4" y1="298.4" x2="401.7" y2="401.7"/>
<line x1="213.6" y1="298.4" x2="110.3" y2="401.7"/>
<line x1="213.6" y1="213.6" x2="110.3" y2="110.3"/>
<line x1="298.4" y1="213.6" x2="401.7" y2="110.3"/>
</g>
<g transform="rotate(0.0000 256.0 256.0)"><rect x="247.0" y="66.0" width="18" height="150" fill="#e6ecf6"/></g>
<g transform="rotate(0.0000 256.0 256.0)"><rect x="247.0" y="66.0" width="18" height="10" fill="#aeb8c8"/></g>
<g transform="rotate(90.0000 256.0 256.0)"><rect x="247.0" y="66.0" width="18" height="150" fill="#e6ecf6"/></g>
<g transform="rotate(90.0000 256.0 256.0)"><rect x="247.0" y="66.0" width="18" height="10" fill="#aeb8c8"/></g>
<g transform="rotate(180.0000 256.0 256.0)"><rect x="247.0" y="66.0" width="18" height="150" fill="#e6ecf6"/></g>
<g transform="rotate(180.0000 256.0 256.0)"><rect x="247.0" y="66.0" width="18" height="10" fill="#aeb8c8"/></g>
<g transform="rotate(270.0000 256.0 256.0)"><rect x="247.0" y="66.0" width="18" height="150" fill="#e6ecf6"/></g>
<g transform="rotate(270.0000 256.0 256.0)"><rect x="247.0" y="66.0" width="18" height="10" fill="#aeb8c8"/></g>
<circle cx="256.0" cy="256.0" r="52" fill="none" stroke="#e6ecf6" stroke-width="14"/>
<circle cx="256.0" cy="256.0" r="40.0" fill="#38424c"/>
<circle cx="274.4" cy="274.4" r="7" fill="#aeb8c8"/>
<circle cx="237.6" cy="274.4" r="7" fill="#aeb8c8"/>
<circle cx="237.6" cy="237.6" r="7" fill="#aeb8c8"/>
<circle cx="274.4" cy="237.6" r="7" fill="#aeb8c8"/>
</svg>
