<svg xmlns="http://www.w3.org/2000/svg" width="512" height="512" viewBox="0 0 512 512">
<rect x="0" y="0" width="512" height="512" fill="#8080ff"/>
<g transform="scale(1 3.200000)">
<rect x="24" y="16" width="200" height="128" fill="#8080ff"/>
<rect x="24" y="16" width="4" height="128" fill="#1e80d1"/>
<rect x="220" y="16" width="4" height="128" fill="#e180d1"/>
<rect x="24" y="16" width="200" height="4" fill="#80e1d1"/>
<rect x="24" y="140" width="200" height="4" fill="#801ed1"/>
<rect x="28" y="22" width="192" height="4" fill="#80eac6"/>
<rect x="28" y="28" width="192" height="4" fill="#8015c6"/>
<rect x="28" y="40" width="192" height="4" fill="#80eac6"/>
<rect x="28" y="46" width="192" height="4" fill="#8015c6"/>
<rect x="28" y="58" width="192" height="4" fill="#80eac6"/>
<rect x="28" y="64" width="192" height="4" fill="#8015c6"/>
<rect x="28" y="76" width="192" height="4" fill="#80eac6"/>
<rect x="28" y="82" width="192" height="4" fill="#8015c6"/>
<rect x="28" y="94" width="192" height="4" fill="#80eac6"/>
<rect x="28" y="100" width="192" height="4" fill="#8015c6"/>
<rect x="28" y="112" width="192" height="4" fill="#80eac6"/>
<rect x="28" y="118" width="192" height="4" fill="#8015c6"/>
<rect x="28" y="130" width="192" height="4" fill="#80eac6"/>
<rect x="28" y="136" width="192" height="4" fill="#8015c6"/>
<rect x="288" y="16" width="200" height="128" fill="#8080ff"/>
<rect x="288" y="16" width="4" height="128" fill="#1e80d1"/>
<rect x="484" y="16" width="4" height="128" fill="#e180d1"/>
<rect x="288" y="16" width="200" height="4" fill="#80e1d1"/>
<rect x="288" y="140" width="200" height="4" fill="#801ed1"/>
<rect x="292" y="22" width="192" height="4" fill="#80eac6"/>
<rect x="292" y="28" width="192" height="4" fill="#8015c6"/>
<rect x="292" y="40" width="192" height="4" fill="#80eac6"/>
<rect x="292" y="46" width="192" height="4" fill="#8015c6"/>
<rect x="292" y="58" width="192" height="4" fill="#80eac6"/>
<rect x="292" y="64" width="192" height="4" fill="#8015c6"/>
<rect x="292" y="76" width="192" height="4" fill="#80eac6"/>
<rect x="292" y="82" width="192" height="4" fill="#8015c6"/>
<rect x="292" y="94" width="192" height="4" fill="#80eac6"/>
<rect x="292" y="100" width="192" height="4" fill="#8015c6"/>
<rect x="292" y="112" width="192" height="4" fill="#80eac6"/>
<rect x="292" y="118" width="192" height="4" fill="#8015c6"/>
<rect x="292" y="130" width="192" height="4" fill="#80eac6"/>
<rect x="292" y="136" width="192" height="4" fill="#8015c6"/>
<rect x="232" y="0" width="6" height="160" fill="#1a80cd"/>
<rect x="274" y="0" width="6" height="160" fill="#e580cd"/>
<polygon points="260.00,26.00 259.86,27.04 262.76,27.81 263.00,26.00" fill="#e472cd"/>
<polygon points="259.86,27.04 259.46,28.00 262.06,29.50 262.76,27.81" fill="#dd59cd"/>
<polygon points="259.46,28.00 258.83,28.83 260.95,30.95 262.06,29.50" fill="#d042cd"/>
<polygon points="258.83,28.83 258.00,29.46 259.50,32.06 260.95,30.95" fill="#bd2fcd"/>
<polygon points="258.00,29.46 257.04,29.86 257.81,32.76 259.50,32.06" fill="#a622cd"/>
<polygon points="257.04,29.86 256.00,30.00 256.00,33.00 257.81,32.76" fill="#8d1bcd"/>
<polygon points="256.00,30.00 254.96,29.86 254.19,32.76 256.00,33.00" fill="#721bcd"/>
<polygon points="254.96,29.86 254.00,29.46 252.50,32.06 254.19,32.76" fill="#5922cd"/>
<polygon points="254.00,29.46 253.17,28.83 251.05,30.95 252.50,32.06" fill="#422fcd"/>
<polygon points="253.17,28.83 252.54,28.00 249.94,29.50 251.05,30.95" fill="#2f42cd"/>
<polygon points="252.54,28.00 252.14,27.04 249.24,27.81 249.94,29.50" fill="#2259cd"/>
<polygon points="252.14,27.04 252.00,26.00 249.00,26.00 249.24,27.81" fill="#1b72cd"/>
<polygon points="252.00,26.00 252.14,24.96 249.24,24.19 249.00,26.00" fill="#1b8dcd"/>
<polygon points="252.14,24.96 252.54,24.00 249.94,22.50 249.24,24.19" fill="#22a6cd"/>
<polygon points="252.54,24.00 253.17,23.17 251.05,21.05 249.94,22.50" fill="#2fbdcd"/>
<polygon points="253.17,23.17 254.00,22.54 252.50,19.94 251.05,21.05" fill="#42d0cd"/>
<polygon points="254.00,22.54 254.96,22.14 254.19,19.24 252.50,19.94" fill="#59ddcd"/>
<polygon points="254.96,22.14 256.00,22.00 256.00,19.00 254.19,19.24" fill="#72e4cd"/>
<polygon points="256.00,22.00 257.04,22.14 257.81,19.24 256.00,19.00" fill="#8de4cd"/>
<polygon points="257.04,22.14 258.00,22.54 259.50,19.94 257.81,19.24" fill="#a6ddcd"/>
<polygon points="258.00,22.54 258.83,23.17 260.95,21.05 259.50,19.94" fill="#bdd0cd"/>
<polygon points="258.83,23.17 259.46,24.00 262.06,22.50 260.95,21.05" fill="#d0bdcd"/>
<polygon points="259.46,24.00 259.86,24.96 262.76,24.19 262.06,22.50" fill="#dda6cd"/>
<polygon points="259.86,24.96 260.00,26.00 263.00,26.00 262.76,24.19" fill="#e48dcd"/>
<polygon points="260.00,80.00 259.86,81.04 262.76,81.81 263.00,80.00" fill="#e472cd"/>
<polygon points="259.86,81.04 259.46,82.00 262.06,83.50 262.76,81.81" fill="#dd59cd"/>
<polygon points="259.46,82.00 258.83,82.83 260.95,84.95 262.06,83.50" fill="#d042cd"/>
<polygon points="258.83,82.83 258.00,83.46 259.50,86.06 260.95,84.95" fill="#bd2fcd"/>
<polygon points="258.00,83.46 257.04,83.86 257.81,86.76 259.50,86.06" fill="#a622cd"/>
<polygon points="257.04,83.86 256.00,84.00 256.00,87.00 257.81,86.76" fill="#8d1bcd"/>
<polygon points="256.00,84.00 254.96,83.86 254.19,86.76 256.00,87.00" fill="#721bcd"/>
<polygon points="254.96,83.86 254.00,83.46 252.50,86.06 254.19,86.76" fill="#5922cd"/>
<polygon points="254.00,83.46 253.17,82.83 251.05,84.95 252.50,86.06" fill="#422fcd"/>
<polygon points="253.17,82.83 252.54,82.00 249.94,83.50 251.05,84.95" fill="#2f42cd"/>
<polygon points="252.54,82.00 252.14,81.04 249.24,81.81 249.94,83.50" fill="#2259cd"/>
<polygon points="252.14,81.04 252.00,80.00 249.00,80.00 249.24,81.81" fill="#1b72cd"/>
<polygon points="252.00,80.00 252.14,78.96 249.24,78.19 249.00,80.00" fill="#1b8dcd"/>
<polygon points="252.14,78.96 252.54,78.00 249.94,76.50 249.24,78.19" fill="#22a6cd"/>
<polygon points="252.54,78.00 253.17,77.17 251.05,75.05 249.94,76.50" fill="#2fbdcd"/>
<polygon points="253.17,77.17 254.00,76.54 252.50,73.94 251.05,75.05" fill="#42d0cd"/>
<polygon points="254.00,76.54 254.96,76.14 254.19,73.24 252.50,73.94" fill="#59ddcd"/>
<polygon points="254.96,76.14 256.00,76.00 256.00,73.00 254.19,73.24" fill="#72e4cd"/>
<polygon points="256.00,76.00 257.04,76.14 257.81,73.24 256.00,73.00" fill="#8de4cd"/>
<polygon points="257.04,76.14 258.00,76.54 259.50,73.94 257.81,73.24" fill="#a6ddcd"/>
<polygon points="258.00,76.54 258.83,77.17 260.95,75.05 259.50,73.94" fill="#bdd0cd"/>
<polygon points="258.83,77.17 259.46,78.00 262.06,76.50 260.95,75.05" fill="#d0bdcd"/>
<polygon points="259.46,78.00 259.86,78.96 262.76,78.19 262.06,76.50" fill="#dda6cd"/>
<polygon points="259.86,78.96 260.00,80.00 263.00,80.00 262.76,78.19" fill="#e48dcd"/>
<polygon points="260.00,134.00 259.86,135.04 262.76,135.81 263.00,134.00" fill="#e472cd"/>
<polygon points="259.86,135.04 259.46,136.00 262.06,137.50 262.76,135.81" fill="#dd59cd"/>
<polygon points="259.46,136.00 258.83,136.83 260.95,138.95 262.06,137.50" fill="#d042cd"/>
<polygon points="258.83,136.83 258.00,137.46 259.50,140.06 260.95,138.95" fill="#bd2fcd"/>
<polygon points="258.00,137.46 257.04,137.86 257.81,140.76 259.50,140.06" fill="#a622cd"/>
<polygon points="257.04,137.86 256.00,138.00 256.00,141.00 257.81,140.76" fill="#8d1bcd"/>
<polygon points="256.00,138.00 254.96,137.86 254.19,140.76 256.00,141.00" fill="#721bcd"/>
<polygon points="254.96,137.86 254.00,137.46 252.50,140.06 254.19,140.76" fill="#5922cd"/>
<polygon points="254.00,137.46 253.17,136.83 251.05,138.95 252.50,140.06" fill="#422fcd"/>
<polygon points="253.17,136.83 252.54,136.00 249.94,137.50 251.05,138.95" fill="#2f42cd"/>
<polygon points="252.54,136.00 252.14,135.04 249.24,135.81 249.94,137.50" fill="#2259cd"/>
<polygon points="252.14,135.04 252.00,134.00 249.00,134.00 249.24,135.81" fill="#1b72cd"/>
<polygon points="252.00,134.00 252.14,132.96 249.24,132.19 249.00,134.00" fill="#1b8dcd"/>
<polygon points="252.14,132.96 252.54,132.00 249.94,130.50 249.24,132.19" fill="#22a6cd"/>
<polygon points="252.54,132.00 253.17,131.17 251.05,129.05 249.94,130.50" fill="#2fbdcd"/>
<polygon points="253.17,131.17 254.00,130.54 252.50,127.94 251.05,129.05" fill="#42d0cd"/>
<polygon points="254.00,130.54 254.96,130.14 254.19,127.24 252.50,127.94" fill="#59ddcd"/>
<polygon points="254.96,130.14 256.00,130.00 256.00,127.00 254.19,127.24" fill="#72e4cd"/>
<polygon points="256.00,130.00 257.04,130.14 257.81,127.24 256.00,127.00" fill="#8de4cd"/>
<polygon points="257.04,130.14 258.00,130.54 259.50,127.94 257.81,127.24" fill="#a6ddcd"/>
<polygon points="258.00,130.54 258.83,131.17 260.95,129.05 259.50,127.94" fill="#bdd0cd"/>
<polygon points="258.83,131.17 259.46,132.00 262.06,130.50 260.95,129.05" fill="#d0bdcd"/>
<polygon points="259.46,132.00 259.86,132.96 262.76,132.19 262.06,130.50" fill="#dda6cd"/>
<polygon points="259.86,132.96 260.00,134.00 263.00,134.00 262.76,132.19" fill="#e48dcd"/>
</g>
</svg>
